<svg width="73" height="69" viewBox="0 0 73 69" fill="none" xmlns="http://www.w3.org/2000/svg">
<ellipse cx="42.5184" cy="36.4055" rx="29.625" ry="29.5833" fill="url(#paint0_linear_9_1788)"/>
<mask id="mask0_9_1788" style="mask-type:alpha" maskUnits="userSpaceOnUse" x="0" y="0" width="73" height="69">
<ellipse cx="36.3309" cy="34.1336" rx="35.8125" ry="34.022" fill="white"/>
</mask>
<g mask="url(#mask0_9_1788)">
<path d="M52.9964 50.6881L22.6423 28.9766C22.1499 28.6243 22.0362 27.9394 22.3884 27.447L33.7209 11.6033C34.0732 11.1108 34.7581 10.9971 35.2505 11.3493L65.6046 33.0607C66.0972 33.4131 66.2108 34.0979 65.8585 34.5904L54.526 50.4341C54.1738 50.9268 53.4889 51.0403 52.9964 50.6881Z" fill="url(#paint1_linear_9_1788)"/>
<path d="M52.7736 49.605L23.7393 28.8376C23.2748 28.5053 23.1676 27.8593 23.4999 27.3948L34.0306 12.6721C34.3629 12.2075 35.0088 12.1003 35.4734 12.4326L64.5076 33.2C64.9722 33.5323 65.0793 34.1782 64.7471 34.6428L54.2162 49.3655C53.8841 49.83 53.2381 49.9372 52.7736 49.605Z" fill="url(#paint2_linear_9_1788)"/>
<path d="M59.9452 37.1617C58.4565 36.0969 58.113 34.0269 59.1777 32.5384C59.2215 32.4772 59.2669 32.418 59.3139 32.3609C59.5398 32.0862 59.4871 31.6787 59.1979 31.4718L38.8246 16.8992C38.5354 16.6923 38.1326 16.7741 37.9457 17.0766C37.9068 17.1396 37.8655 17.2018 37.8218 17.2629C36.757 18.7516 34.687 19.0952 33.1984 18.0303C33.1967 18.029 33.1949 18.0278 33.1932 18.0265C32.914 17.8259 32.5271 17.8818 32.3272 18.1614L28.1447 24.0087C27.9447 24.2883 28.0168 24.6725 28.2968 24.872C28.2985 24.8732 28.3002 24.8745 28.3021 24.8758C29.7908 25.9406 30.1343 28.0105 29.0695 29.4992C29.0258 29.5603 28.9803 29.6195 28.9333 29.6767C28.7074 29.9513 28.7601 30.3588 29.0493 30.5657L49.4226 45.1382C49.7119 45.3451 50.1147 45.2633 50.3016 44.9607C50.3404 44.8977 50.3817 44.8356 50.4255 44.7744C51.4902 43.2857 53.5603 42.9422 55.0488 44.007C55.0506 44.0082 55.0523 44.0095 55.054 44.0108C55.3333 44.2114 55.7202 44.1555 55.9202 43.8759L60.1027 38.0286C60.3027 37.749 60.2306 37.3647 59.9506 37.1653C59.9486 37.1641 59.9469 37.1629 59.9452 37.1617Z" fill="url(#paint3_linear_9_1788)"/>
<circle cx="44.1234" cy="31.0188" r="7.54933" fill="url(#paint4_linear_9_1788)"/>
<path d="M49.1862 29.0361C49.1972 28.8231 49.1035 28.5723 48.9036 28.2829C48.688 27.9713 48.4295 27.6796 48.1297 27.4064C48.12 27.3827 48.1093 27.3601 48.0971 27.3388L47.9837 26.4721C47.9475 26.3617 47.8857 26.2749 47.7976 26.2119C47.7016 26.1432 47.5991 26.1125 47.4913 26.1198C47.383 26.1272 47.3032 26.1669 47.2517 26.2389L47.0025 26.5872C46.3024 26.1954 45.6052 26.0235 44.9111 26.0716C44.2169 26.1198 43.6211 26.4918 43.1236 27.1873C42.9464 27.435 42.8129 27.6808 42.7232 27.9248C42.6333 28.1687 42.5984 28.4123 42.618 28.6558C42.6374 28.8992 42.6666 29.1164 42.7057 29.3075C42.7059 29.3089 42.7064 29.3102 42.7066 29.3115C42.7066 29.3115 43.1366 31.9022 43.1369 31.9035C43.1402 31.9285 43.144 31.9524 43.1475 31.9768L41.7104 33.9859C41.3727 33.7081 41.126 33.3928 40.97 33.0396C40.814 32.6866 40.7089 32.3851 40.6544 32.1345C40.5997 31.884 40.525 31.7248 40.4301 31.6568C40.2867 31.5543 40.1052 31.5393 39.8851 31.6114C39.665 31.6835 39.5008 31.7956 39.3923 31.9473C39.2187 32.19 39.1844 32.5271 39.2892 32.9585L40.782 41.9514L52.7511 50.5126L49.1862 29.0361Z" fill="url(#paint5_linear_9_1788)"/>
<path fill-rule="evenodd" clip-rule="evenodd" d="M39.3924 31.9475C39.5009 31.7956 39.6651 31.6836 39.8852 31.6115C40.1053 31.5395 40.2868 31.5545 40.4302 31.657C40.5252 31.725 40.5999 31.8842 40.6545 32.1346C40.709 32.3852 40.8141 32.6869 40.9701 33.0398C41.1261 33.393 41.3728 33.7082 41.7105 33.9861L43.7252 31.1694C43.5478 30.9098 43.4136 30.7079 43.3228 30.5644C43.2316 30.4209 43.1158 30.2232 42.9752 29.9717C42.8344 29.7201 42.7444 29.4986 42.7057 29.3077C42.6667 29.1168 42.6375 28.8995 42.618 28.6561C42.5984 28.4126 42.6333 28.169 42.7232 27.9251C42.8129 27.6811 42.9464 27.4354 43.1236 27.1876C43.621 26.4921 44.2169 26.1199 44.9111 26.0719C45.6052 26.0236 46.3023 26.1956 47.0025 26.5873L47.2516 26.2391C47.3031 26.167 47.3829 26.1274 47.4911 26.1199C47.599 26.1126 47.7015 26.1432 47.7975 26.2119C47.8856 26.2749 47.9474 26.3617 47.9836 26.4721C48.0194 26.5826 48.0118 26.6739 47.9603 26.7459L47.7283 27.0702C48.2051 27.4356 48.5967 27.8397 48.9034 28.2829C49.2096 28.726 49.2684 29.0797 49.0795 29.3438C48.9763 29.4879 48.8204 29.6033 48.6118 29.6902C48.4033 29.7771 48.2182 29.7627 48.0567 29.6473C47.9929 29.6017 47.8661 29.4082 47.6767 29.0669C47.4871 28.7256 47.2408 28.4282 46.9377 28.1752L45.1967 30.6093C45.4295 30.957 45.6128 31.2602 45.7465 31.5191C45.8803 31.7779 45.9963 32.0872 46.0941 32.4471C46.1919 32.8069 46.1961 33.1754 46.1069 33.5523C46.0176 33.9294 45.8331 34.3138 45.553 34.7054C45.0413 35.4207 44.4394 35.8498 43.7475 35.9925C43.0555 36.1352 42.3406 36.0157 41.6028 35.6338L41.3157 36.0351C41.2652 36.1059 41.1821 36.1415 41.0665 36.1423C40.951 36.1428 40.8493 36.1117 40.7613 36.0488C40.6653 35.9801 40.6027 35.8937 40.574 35.7902C40.5453 35.6864 40.5563 35.5991 40.6069 35.5284L40.8683 35.1629C40.1774 34.6566 39.7008 34.0748 39.4388 33.4176C39.1768 32.7604 39.1614 32.2705 39.3924 31.9475ZM44.3984 27.9185C44.1755 28.2302 44.1024 28.5374 44.1796 28.84C44.2564 29.1427 44.4377 29.5048 44.7233 29.9264L46.2851 27.743C45.4397 27.2833 44.8109 27.342 44.3984 27.9185ZM44.2701 33.9868C43.7958 34.65 43.1604 34.7935 42.3644 34.4174L44.1734 31.8883C44.4067 32.2728 44.5439 32.6308 44.5853 32.9623C44.6266 33.2936 44.5215 33.6353 44.2701 33.9868Z" fill="url(#paint6_linear_9_1788)"/>
<circle cx="34.9896" cy="16.1328" r="1.56745" fill="url(#paint7_linear_9_1788)"/>
<circle cx="61.1623" cy="34.8536" r="1.56757" fill="url(#paint8_linear_9_1788)"/>
<circle cx="27.0848" cy="27.1842" r="1.56745" fill="url(#paint9_linear_9_1788)"/>
<circle cx="53.2575" cy="45.9049" r="1.56757" fill="url(#paint10_linear_9_1788)"/>
<path d="M51.3937 50.3177L30.1742 19.6179C29.8299 19.1197 29.9546 18.4367 30.4528 18.0925L46.477 7.01674C46.9751 6.67241 47.6581 6.79713 48.0023 7.29529L69.2218 37.9953C69.5661 38.4934 69.4414 39.1764 68.9433 39.5206L52.9191 50.5964C52.4209 50.9406 51.7381 50.8159 51.3937 50.3177Z" fill="url(#paint11_linear_9_1788)"/>
<path d="M51.5504 49.2232L31.2536 19.858C30.9289 19.3882 31.0465 18.7441 31.5162 18.4193L46.4068 8.12711C46.8766 7.80239 47.5207 7.92003 47.8454 8.38977L68.1423 37.7549C68.467 38.2248 68.3494 38.8689 67.8796 39.1936L52.9891 49.4858C52.5193 49.8105 51.8752 49.6929 51.5504 49.2232Z" fill="url(#paint12_linear_9_1788)"/>
<path d="M62.5087 39.9395C61.468 38.4339 61.845 36.3698 63.3506 35.329C63.4124 35.2864 63.4752 35.246 63.5389 35.2082C63.8443 35.0263 63.9326 34.6247 63.7304 34.3323L49.488 13.7268C49.2858 13.4343 48.8791 13.3749 48.601 13.5964C48.5431 13.6426 48.4831 13.687 48.4213 13.7297C46.9157 14.7703 44.8516 14.3934 43.8109 12.8878C43.8097 12.8861 43.8085 12.8842 43.8072 12.8825C43.6123 12.5993 43.2294 12.521 42.9465 12.7164L37.0325 16.8042C36.7498 16.9997 36.6876 17.3856 36.8837 17.668C36.8849 17.6697 36.8861 17.6716 36.8874 17.6733C37.928 19.179 37.5511 21.2431 36.0455 22.2838C35.9836 22.3265 35.9209 22.3669 35.8572 22.4047C35.5517 22.5866 35.4634 22.9881 35.6656 23.2806L49.908 43.8861C50.1102 44.1785 50.517 44.2379 50.795 44.0165C50.8529 43.9703 50.9129 43.9259 50.9747 43.883C52.4804 42.8424 54.5445 43.2193 55.5852 44.725C55.5865 44.7267 55.5877 44.7286 55.5889 44.7303C55.7838 45.0135 56.1668 45.0918 56.4496 44.8963L62.3637 40.8086C62.6465 40.6131 62.7086 40.2271 62.5125 39.9447C62.5111 39.943 62.5098 39.9413 62.5087 39.9395Z" fill="url(#paint13_linear_9_1788)"/>
<circle cx="49.6979" cy="28.8064" r="7.54933" fill="url(#paint14_linear_9_1788)"/>
<path d="M55.1328 28.6535C55.2152 28.4568 55.2118 28.189 55.1216 27.8492C55.0242 27.483 54.8796 27.121 54.6899 26.7625C54.6889 26.7369 54.6863 26.712 54.6821 26.6879L54.8686 25.8339C54.872 25.7178 54.8431 25.6151 54.7815 25.5261C54.7143 25.4289 54.6283 25.3654 54.5243 25.3359C54.4199 25.3062 54.3315 25.3166 54.2585 25.3669L53.9062 25.6105C53.3799 25.0049 52.782 24.6073 52.1125 24.4178C51.4428 24.2283 50.7563 24.3769 50.0529 24.8631C49.8023 25.0363 49.5936 25.2224 49.4267 25.4216C49.2596 25.6207 49.1443 25.8381 49.0804 26.0738C49.0163 26.3094 48.9703 26.5237 48.9424 26.7166C48.9422 26.718 48.9421 26.7194 48.9419 26.7208C48.9419 26.7208 48.4701 29.3042 48.47 29.3056C48.4647 29.3303 48.46 29.354 48.4552 29.3781L46.4232 30.7826C46.1994 30.4068 46.0738 30.0267 46.0466 29.6416C46.0192 29.2566 46.0224 28.9373 46.0558 28.683C46.0891 28.4289 46.0727 28.2537 46.0062 28.1576C45.906 28.0126 45.7402 27.9371 45.5087 27.9305C45.2772 27.9239 45.0847 27.9739 44.9313 28.08C44.6858 28.2496 44.5395 28.5552 44.4923 28.9967L42.8547 37.9644L51.222 50.0699L55.1328 28.6535Z" fill="url(#paint15_linear_9_1788)"/>
<path fill-rule="evenodd" clip-rule="evenodd" d="M44.9315 28.08C45.0851 27.9739 45.2774 27.924 45.5089 27.9305C45.7403 27.9371 45.9062 28.0126 46.0064 28.1576C46.0727 28.2537 46.0892 28.4289 46.0559 28.683C46.0224 28.9373 46.0193 29.2566 46.0467 29.6416C46.074 30.0267 46.1995 30.4069 46.4233 30.7826L49.2721 28.8135C49.193 28.5092 49.135 28.2738 49.0981 28.108C49.0609 27.9421 49.0188 27.7169 48.9715 27.4326C48.9241 27.1481 48.9145 26.9093 48.9425 26.7166C48.9704 26.5237 49.0164 26.3093 49.0805 26.0738C49.1444 25.8381 49.2597 25.6206 49.4268 25.4216C49.5937 25.2224 49.8024 25.0363 50.053 24.8631C50.7564 24.3769 51.443 24.2283 52.1126 24.4178C52.782 24.6073 53.38 25.0049 53.9063 25.6105L54.2586 25.3669C54.3315 25.3166 54.42 25.3062 54.5244 25.3359C54.6285 25.3654 54.7144 25.4289 54.7816 25.5261C54.8431 25.6151 54.872 25.7178 54.8687 25.8339C54.8651 25.95 54.8271 26.0333 54.7541 26.0837L54.4261 26.3104C54.7512 26.8155 54.9831 27.3284 55.1217 27.8492C55.26 28.3698 55.1958 28.7224 54.9286 28.9072C54.7828 29.0079 54.597 29.0638 54.3714 29.075C54.1457 29.0862 53.9763 29.01 53.8636 28.8468C53.819 28.7823 53.7651 28.5573 53.7024 28.172C53.6394 27.7866 53.5082 27.4235 53.3087 27.083L50.8469 28.7846C50.9483 29.1905 51.0181 29.538 51.0565 29.8267C51.0948 30.1155 51.0993 30.4459 51.0696 30.8176C51.0399 31.1893 50.9193 31.5375 50.7078 31.8621C50.4963 32.1867 50.1925 32.4861 49.7965 32.7598C49.0729 33.2599 48.3614 33.46 47.662 33.3603C46.9624 33.2604 46.3301 32.9062 45.765 32.2971L45.3592 32.5776C45.2876 32.6271 45.1974 32.6325 45.0885 32.5942C44.9796 32.5556 44.8944 32.4919 44.8329 32.4029C44.7657 32.3057 44.7361 32.2033 44.7441 32.0963C44.7524 31.9889 44.7922 31.9106 44.8637 31.861L45.2332 31.6056C44.7545 30.8954 44.5027 30.1867 44.4785 29.4795C44.4536 28.7721 44.6048 28.3058 44.9315 28.08ZM51.0055 25.982C50.6903 26.1999 50.5175 26.4643 50.4878 26.7751C50.4578 27.0859 50.5057 27.488 50.6319 27.9814L52.8403 26.455C52.2001 25.7366 51.5886 25.579 51.0055 25.982ZM48.8317 31.6491C48.1609 32.1128 47.5144 32.0328 46.8927 31.4096L49.4506 29.6416C49.54 30.0824 49.548 30.4656 49.4749 30.7916C49.4016 31.1174 49.1872 31.4033 48.8317 31.6491Z" fill="url(#paint16_linear_9_1788)"/>
<path d="M47.0296 12.9975C46.3174 13.4898 45.3411 13.3115 44.8489 12.5994C44.3566 11.8872 44.5349 10.9109 45.247 10.4187C45.9592 9.92644 46.9356 10.1048 47.4278 10.8168C47.92 11.5289 47.7417 12.5053 47.0296 12.9975Z" fill="url(#paint17_linear_9_1788)"/>
<circle cx="64.4349" cy="38.1791" r="1.56757" fill="url(#paint18_linear_9_1788)"/>
<circle cx="34.961" cy="19.4338" r="1.56745" fill="url(#paint19_linear_9_1788)"/>
<circle cx="53.2575" cy="45.9049" r="1.56745" fill="url(#paint20_linear_9_1788)"/>
<path d="M50.0107 49.427L40.4279 13.3587C40.2724 12.7734 40.6208 12.1729 41.206 12.0174L60.0323 7.01554C60.6176 6.86008 61.218 7.20847 61.3735 7.79364L70.9563 43.8619C71.1118 44.4472 70.7634 45.0477 70.1782 45.2031L51.3519 50.2052C50.7666 50.3606 50.1662 50.0122 50.0107 49.427Z" fill="url(#paint21_linear_9_1788)"/>
<path d="M50.5285 48.45L41.3623 13.95C41.2157 13.398 41.5442 12.8317 42.0962 12.6851L59.5907 8.037C60.1427 7.89036 60.7089 8.21891 60.8557 8.7709L70.0219 43.271C70.1685 43.823 69.84 44.3893 69.288 44.536L51.7934 49.1839C51.2415 49.3305 50.6752 49.002 50.5285 48.45Z" fill="url(#paint22_linear_9_1788)"/>
<path d="M63.9813 43.4208C63.5113 41.6519 64.5642 39.8369 66.3332 39.3669C66.4058 39.3476 66.4786 39.3309 66.5513 39.3168C66.9003 39.2489 67.1192 38.901 67.0279 38.5574L60.5959 14.3488C60.5046 14.0051 60.1419 13.8117 59.8053 13.926C59.7352 13.9498 59.6637 13.9714 59.5911 13.9908C57.8222 14.4607 56.0072 13.4078 55.5372 11.6388C55.5367 11.6367 55.5362 11.6346 55.5356 11.6326C55.448 11.3002 55.114 11.0969 54.7819 11.1852L47.8337 13.0312C47.5015 13.1195 47.3125 13.4616 47.4014 13.7938C47.4019 13.7959 47.4025 13.7979 47.403 13.8C47.8729 15.5689 46.82 17.3839 45.051 17.8539C44.9784 17.8731 44.9057 17.8898 44.8331 17.904C44.484 17.9719 44.2652 18.3198 44.3565 18.6634L50.7884 42.8721C50.8797 43.2158 51.2423 43.4092 51.579 43.2949C51.6491 43.2711 51.7205 43.2495 51.7931 43.2301C53.562 42.7602 55.377 43.8131 55.847 45.5821C55.8476 45.5842 55.848 45.5863 55.8486 45.5883C55.9362 45.9207 56.2702 46.124 56.6024 46.0357L63.5505 44.1897C63.8828 44.1014 64.0718 43.7593 63.9829 43.4271C63.9824 43.4249 63.9818 43.4228 63.9813 43.4208Z" fill="url(#paint23_linear_9_1788)"/>
<circle cx="55.692" cy="28.6104" r="7.54933" fill="url(#paint24_linear_9_1788)"/>
<path d="M60.8583 30.3051C61.0024 30.1479 61.0899 29.8947 61.1199 29.5444C61.152 29.1669 61.1385 28.7772 61.0813 28.3758C61.0889 28.3514 61.095 28.3272 61.0991 28.3029L61.5637 27.5624C61.606 27.4543 61.6137 27.3479 61.5858 27.2432C61.5554 27.1291 61.496 27.0403 61.4082 26.9772C61.32 26.914 61.2332 26.8938 61.1476 26.9165L60.7337 27.0265C60.4433 26.2786 60.0151 25.7021 59.4493 25.2975C58.8833 24.8925 58.187 24.8001 57.3605 25.0197C57.0662 25.0979 56.8068 25.2025 56.5822 25.3334C56.3577 25.4642 56.1755 25.6298 56.0356 25.8301C55.8956 26.0301 55.7798 26.2163 55.6883 26.3883C55.6876 26.3895 55.687 26.3909 55.6864 26.3922C55.6864 26.3922 54.3685 28.6636 54.3679 28.6649C54.3545 28.6863 54.3422 28.7071 54.3294 28.7281L51.9421 29.3623C51.8586 28.9331 51.869 28.5328 51.9737 28.1613C52.0781 27.7898 52.1891 27.4902 52.3066 27.2623C52.4239 27.0344 52.4678 26.864 52.4377 26.7511C52.3925 26.5808 52.2619 26.4535 52.0464 26.369C51.8308 26.2844 51.6329 26.2664 51.4525 26.3143C51.1641 26.3909 50.923 26.6289 50.7293 27.0284L46.1547 34.9133L49.9333 49.1356L60.8583 30.3051Z" fill="url(#paint25_linear_9_1788)"/>
<path fill-rule="evenodd" clip-rule="evenodd" d="M51.4524 26.3143C51.6328 26.2664 51.8308 26.2845 52.0464 26.3689C52.262 26.4535 52.3925 26.5807 52.4377 26.7511C52.4677 26.864 52.4239 27.0344 52.3066 27.2622C52.1891 27.4902 52.0782 27.7898 51.9737 28.1612C51.869 28.5328 51.8586 28.9331 51.9421 29.3623L55.2891 28.4731C55.3177 28.1599 55.3426 27.9189 55.3641 27.7503C55.3852 27.5816 55.4217 27.3554 55.4735 27.0719C55.5251 26.7881 55.5968 26.5601 55.6884 26.3883C55.78 26.2161 55.8957 26.0301 56.0357 25.8301C56.1756 25.6298 56.3577 25.4641 56.5822 25.3334C56.8067 25.2024 57.0661 25.0979 57.3605 25.0197C58.187 24.8001 58.8833 24.8926 59.4494 25.2974C60.0153 25.7022 60.4435 26.2787 60.7338 27.0265L61.1478 26.9165C61.2334 26.8938 61.3202 26.914 61.4083 26.9772C61.4963 27.0403 61.5557 27.1291 61.586 27.2432C61.6138 27.3477 61.6062 27.4541 61.5638 27.5624C61.5211 27.6704 61.4571 27.7359 61.3715 27.7587L60.9861 27.861C61.1211 28.4464 61.1658 29.0074 61.1201 29.5443C61.074 30.081 60.8943 30.3911 60.5804 30.4745C60.4091 30.52 60.2154 30.5097 59.9993 30.4439C59.7831 30.3781 59.6496 30.2491 59.5985 30.0573C59.5785 29.9816 59.6038 29.7515 59.6751 29.3679C59.7462 28.9839 59.7455 28.5978 59.673 28.2098L56.7807 28.9783C56.7388 29.3946 56.687 29.7452 56.6254 30.03C56.5636 30.3147 56.4562 30.6271 56.3025 30.9669C56.1488 31.3066 55.9174 31.5935 55.6086 31.8274C55.2998 32.0612 54.9127 32.2402 54.4474 32.3639C53.5974 32.5898 52.86 32.5374 52.2355 32.207C51.611 31.8763 51.136 31.3291 50.8102 30.5648L50.3334 30.6915C50.2493 30.7139 50.1625 30.6883 50.073 30.6155C49.9837 30.5424 49.925 30.4535 49.8972 30.349C49.8668 30.2348 49.8736 30.1285 49.9174 30.0304C49.9614 29.9321 50.0254 29.8718 50.1095 29.8496L50.5437 29.7342C50.3334 28.9039 50.3363 28.1518 50.5526 27.4781C50.7687 26.8039 51.0687 26.4163 51.4524 26.3143ZM57.8781 26.3948C57.5076 26.4932 57.2558 26.6836 57.1226 26.9661C56.9892 27.2483 56.8982 27.643 56.8501 28.15L59.4446 27.4606C59.0853 26.5679 58.563 26.2128 57.8781 26.3948ZM53.9153 30.9924C53.1272 31.2018 52.5459 30.9078 52.1716 30.1111L55.1767 29.3127C55.1117 29.7577 54.9897 30.121 54.8106 30.4031C54.6314 30.6849 54.3329 30.8815 53.9153 30.9924Z" fill="url(#paint26_linear_9_1788)"/>
<path d="M58.5291 12.8309C57.6924 13.0532 56.8339 12.5551 56.6117 11.7185C56.3894 10.8818 56.8874 10.0233 57.7241 9.80099C58.5608 9.57871 59.4193 10.0768 59.6416 10.9134C59.864 11.7501 59.3658 12.6086 58.5291 12.8309Z" fill="url(#paint27_linear_9_1788)"/>
<path d="M66.7919 43.9309C65.9553 44.1532 65.0968 43.6551 64.8745 42.8184C64.6522 41.9817 65.1502 41.1232 65.9869 40.901C66.8236 40.6787 67.6821 41.1767 67.9044 42.0134C68.1268 42.8501 67.6286 43.7086 66.7919 43.9309Z" fill="url(#paint28_linear_9_1788)"/>
<circle cx="44.9947" cy="14.8049" r="1.56745" fill="url(#paint29_linear_9_1788)"/>
<circle cx="53.2575" cy="45.9049" r="1.56757" fill="url(#paint30_linear_9_1788)"/>
<path d="M68.6723 62.7944H24.4694C22.7579 62.7944 21.3704 61.4069 21.3704 59.6954V28.5128C21.3704 26.8012 22.7579 25.4137 24.4694 25.4137H68.6722C70.3837 25.4137 71.7713 26.8012 71.7713 28.5128V59.6954C71.7714 61.4069 70.3839 62.7944 68.6723 62.7944Z" fill="url(#paint31_linear_9_1788)"/>
<path d="M26.8764 27.8206C25.1649 27.8206 23.7773 29.2081 23.7773 30.9196V62.1022C23.7773 62.3176 23.7994 62.5277 23.8412 62.7306C24.0441 62.7723 24.2542 62.7944 24.4695 62.7944H68.6723C70.3838 62.7944 71.7713 61.4068 71.7713 59.6953V28.5127C71.7713 28.2974 71.7493 28.0873 71.7075 27.8844C71.5046 27.8426 71.2944 27.8206 71.0792 27.8206L26.8764 27.8206Z" fill="url(#paint32_linear_9_1788)"/>
<path d="M68.6723 25.4137H68.6636V56.5876C68.6636 58.2992 67.2761 59.6867 65.5646 59.6867H21.3704V59.6954C21.3704 61.4069 22.7579 62.7944 24.4694 62.7944H68.6722C70.3837 62.7944 71.7713 61.4069 71.7713 59.6954V28.5128C71.7714 26.8012 70.3839 25.4137 68.6723 25.4137Z" fill="url(#paint33_linear_9_1788)"/>
<path d="M71.7714 59.5782V48.9156H61.1088L71.7714 59.5782Z" fill="url(#paint34_linear_9_1788)"/>
<path d="M70.974 49.0247H61.6871C60.8006 49.0247 60.0819 48.306 60.0819 47.4196V40.7884C60.0819 39.9019 60.8006 39.1832 61.6871 39.1832H70.9742C71.8606 39.1832 72.5793 39.9019 72.5793 40.7884V47.4196C72.5792 48.306 71.8606 49.0247 70.974 49.0247Z" fill="url(#paint35_linear_9_1788)"/>
<path d="M62.6616 40.2795C61.7751 40.2795 61.0564 40.9981 61.0564 41.8846V48.5158C61.0564 48.6541 61.0758 48.7877 61.1086 48.9157C61.2882 48.9852 61.4827 49.0249 61.6869 49.0249H70.974C71.8605 49.0249 72.5792 48.3062 72.5792 47.4197V40.7884C72.5792 40.6501 72.5598 40.5166 72.5269 40.3885C72.3473 40.319 72.1527 40.2794 71.9485 40.2794H62.6616V40.2795Z" fill="url(#paint36_linear_9_1788)"/>
<path d="M72.5792 47.4196V47.3957L66.9776 41.7942C66.3589 41.1302 65.4772 40.7145 64.4981 40.7145C62.6262 40.7145 61.1086 42.2321 61.1086 44.104C61.1086 45.0831 61.5243 45.9647 62.1883 46.5835L64.6295 49.0247H70.9741C71.8606 49.0248 72.5792 48.3061 72.5792 47.4196Z" fill="url(#paint37_linear_9_1788)"/>
<circle cx="64.4982" cy="44.1041" r="3.38944" fill="url(#paint38_radial_9_1788)"/>
<circle cx="64.4982" cy="44.1041" r="3.02551" fill="url(#paint39_linear_9_1788)"/>
<path d="M66.0144 41.0721C66.2429 41.5284 66.3718 42.0432 66.3718 42.5883C66.3718 44.4602 64.8542 45.9777 62.9824 45.9777C62.4373 45.9777 61.9225 45.8488 61.4662 45.6203C62.0227 46.731 63.1713 47.4935 64.4982 47.4935C66.3702 47.4935 67.8876 45.976 67.8876 44.1041C67.8876 42.7771 67.1251 41.6286 66.0144 41.0721Z" fill="url(#paint40_linear_9_1788)"/>
<path d="M66.79 42.6534C66.79 43.5232 65.7638 44.2283 64.4981 44.2283C63.2323 44.2283 62.2063 43.5232 62.2063 42.6534C62.2063 41.7837 63.2323 41.0786 64.4981 41.0786C65.7638 41.0784 66.79 41.7836 66.79 42.6534Z" fill="url(#paint41_linear_9_1788)"/>
<path d="M24.4694 62.7944H54.6078L39.0923 47.2789C38.9742 47.0418 38.7301 46.8785 38.4472 46.8785H35.8026H30.707H25.3546H21.3704V59.6953C21.3704 61.4069 22.7579 62.7944 24.4694 62.7944Z" fill="url(#paint42_linear_9_1788)"/>
<path d="M38.4472 65.9888H17.6145C17.2163 65.9888 16.8934 65.6659 16.8934 65.2678V61.9323C16.8934 61.5341 17.2163 61.2112 17.6145 61.2112H38.4472C38.8453 61.2112 39.1682 61.5341 39.1682 61.9323V65.2678C39.1682 65.666 38.8455 65.9888 38.4472 65.9888Z" fill="url(#paint43_linear_9_1788)"/>
<path d="M35.8026 65.9888H20.2589C19.9131 65.9888 19.6328 65.7085 19.6328 65.3627V61.8373C19.6328 61.4916 19.9131 61.2112 20.2589 61.2112H35.8026C36.1485 61.2112 36.4287 61.4915 36.4287 61.8373V65.3627C36.4287 65.7085 36.1485 65.9888 35.8026 65.9888Z" fill="url(#paint44_linear_9_1788)"/>
<path d="M30.7072 65.9888H25.3547C25.1462 65.9888 24.9772 65.8198 24.9772 65.6113V61.5887C24.9772 61.3803 25.1462 61.2112 25.3547 61.2112H30.7072C30.9157 61.2112 31.0847 61.3803 31.0847 61.5887V65.6113C31.0847 65.8198 30.9157 65.9888 30.7072 65.9888Z" fill="url(#paint45_linear_9_1788)"/>
<path d="M18.2432 61.7925C17.8451 61.7925 17.5222 62.1153 17.5222 62.5135V65.8491C17.5222 65.8954 17.527 65.9405 17.5353 65.9843C17.5613 65.9872 17.5878 65.9888 17.6146 65.9888H38.4473C38.8454 65.9888 39.1683 65.6659 39.1683 65.2678V61.9323C39.1683 61.886 39.1636 61.8409 39.1552 61.797C39.1292 61.7941 39.1028 61.7925 39.0761 61.7925L18.2432 61.7925Z" fill="url(#paint46_linear_9_1788)"/>
<path d="M38.4472 61.2113H17.6145C17.2163 61.2113 16.8934 60.8884 16.8934 60.4902V57.1547C16.8934 56.7566 17.2163 56.4337 17.6145 56.4337H38.4472C38.8453 56.4337 39.1682 56.7566 39.1682 57.1547V60.4902C39.1682 60.8884 38.8455 61.2113 38.4472 61.2113Z" fill="url(#paint47_linear_9_1788)"/>
<path d="M35.8026 61.2113H20.2589C19.9131 61.2113 19.6328 60.931 19.6328 60.5851V57.0597C19.6328 56.714 19.9131 56.4336 20.2589 56.4336H35.8026C36.1485 56.4336 36.4287 56.7139 36.4287 57.0597V60.5851C36.4287 60.931 36.1485 61.2113 35.8026 61.2113Z" fill="url(#paint48_linear_9_1788)"/>
<path d="M30.7072 61.2113H25.3547C25.1462 61.2113 24.9772 61.0422 24.9772 60.8337V56.8112C24.9772 56.6027 25.1462 56.4337 25.3547 56.4337H30.7072C30.9157 56.4337 31.0847 56.6027 31.0847 56.8112V60.8337C31.0847 61.0422 30.9157 61.2113 30.7072 61.2113Z" fill="url(#paint49_linear_9_1788)"/>
<path d="M18.2432 57.015C17.8451 57.015 17.5222 57.3378 17.5222 57.736V61.0715C17.5222 61.1178 17.527 61.1629 17.5353 61.2066C17.5613 61.2095 17.5878 61.2112 17.6146 61.2112H38.4473C38.8454 61.2112 39.1683 60.8883 39.1683 60.4901V57.1546C39.1683 57.1083 39.1636 57.0632 39.1552 57.0195C39.1292 57.0166 39.1028 57.015 39.0761 57.015H18.2432Z" fill="url(#paint50_linear_9_1788)"/>
<path d="M38.4472 56.4336H17.6145C17.2163 56.4336 16.8934 56.1107 16.8934 55.7126V52.3771C16.8934 51.9789 17.2163 51.6561 17.6145 51.6561H38.4472C38.8453 51.6561 39.1682 51.9789 39.1682 52.3771V55.7126C39.1682 56.1109 38.8455 56.4336 38.4472 56.4336Z" fill="url(#paint51_linear_9_1788)"/>
<path d="M35.8026 56.4336H20.2589C19.9131 56.4336 19.6328 56.1533 19.6328 55.8075V52.2821C19.6328 51.9363 19.9131 51.6559 20.2589 51.6559H35.8026C36.1485 51.6559 36.4287 51.9362 36.4287 52.2821V55.8075C36.4287 56.1533 36.1485 56.4336 35.8026 56.4336Z" fill="url(#paint52_linear_9_1788)"/>
<path d="M30.7072 56.4336H25.3547C25.1462 56.4336 24.9772 56.2646 24.9772 56.0561V52.0336C24.9772 51.8251 25.1462 51.6561 25.3547 51.6561H30.7072C30.9157 51.6561 31.0847 51.8251 31.0847 52.0336V56.0561C31.0847 56.2646 30.9157 56.4336 30.7072 56.4336Z" fill="url(#paint53_linear_9_1788)"/>
<path d="M18.2432 52.2373C17.8451 52.2373 17.5222 52.5602 17.5222 52.9583V56.2938C17.5222 56.3401 17.527 56.3852 17.5353 56.429C17.5613 56.4319 17.5878 56.4335 17.6146 56.4335H38.4473C38.8454 56.4335 39.1683 56.1106 39.1683 55.7125V52.377C39.1683 52.3307 39.1636 52.2856 39.1552 52.2418C39.1292 52.2389 39.1028 52.2373 39.0761 52.2373H18.2432Z" fill="url(#paint54_linear_9_1788)"/>
<path d="M38.4472 51.6561H17.6145C17.2163 51.6561 16.8934 51.3332 16.8934 50.9351V47.5996C16.8934 47.2014 17.2163 46.8785 17.6145 46.8785H38.4472C38.8453 46.8785 39.1682 47.2014 39.1682 47.5996V50.9351C39.1682 51.3333 38.8455 51.6561 38.4472 51.6561Z" fill="url(#paint55_linear_9_1788)"/>
<path d="M35.8026 51.6561H20.2589C19.9131 51.6561 19.6328 51.3758 19.6328 51.03V47.5045C19.6328 47.1588 19.9131 46.8784 20.2589 46.8784H35.8026C36.1485 46.8784 36.4287 47.1587 36.4287 47.5045V51.03C36.4287 51.3758 36.1485 51.6561 35.8026 51.6561Z" fill="url(#paint56_linear_9_1788)"/>
<path d="M30.7072 51.6561H25.3547C25.1462 51.6561 24.9772 51.487 24.9772 51.2786V47.256C24.9772 47.0476 25.1462 46.8785 25.3547 46.8785H30.7072C30.9157 46.8785 31.0847 47.0476 31.0847 47.256V51.2786C31.0847 51.487 30.9157 51.6561 30.7072 51.6561Z" fill="url(#paint57_linear_9_1788)"/>
<path d="M18.2432 47.4598C17.8451 47.4598 17.5222 47.7826 17.5222 48.1808V51.5163C17.5222 51.5626 17.527 51.6077 17.5353 51.6515C17.5613 51.6544 17.5878 51.656 17.6146 51.656H38.4473C38.8454 51.656 39.1683 51.3331 39.1683 50.935V47.5996C39.1683 47.5533 39.1636 47.5082 39.1552 47.4644C39.1292 47.4615 39.1028 47.4599 39.0761 47.4599H18.2432V47.4598Z" fill="url(#paint58_linear_9_1788)"/>
</g>
<defs>
<linearGradient id="paint0_linear_9_1788" x1="-12.0317" y1="-5.72332" x2="2.84265" y2="73.4434" gradientUnits="userSpaceOnUse">
<stop stop-color="#FEFEFE"/>
<stop offset="1" stop-color="#DEE1E9"/>
</linearGradient>
<linearGradient id="paint1_linear_9_1788" x1="29.3421" y1="22.2273" x2="23.2953" y2="51.7169" gradientUnits="userSpaceOnUse">
<stop stop-color="#4AB272"/>
<stop offset="1" stop-color="#077565"/>
</linearGradient>
<linearGradient id="paint2_linear_9_1788" x1="70.8972" y1="39.1159" x2="78.5472" y2="-10.7988" gradientUnits="userSpaceOnUse">
<stop stop-color="#92F37F" stop-opacity="0.01"/>
<stop offset="1" stop-color="#FFEE83"/>
</linearGradient>
<linearGradient id="paint3_linear_9_1788" x1="34.7796" y1="24.2452" x2="30.1102" y2="43.3473" gradientUnits="userSpaceOnUse">
<stop stop-color="#91F27F"/>
<stop offset="1" stop-color="#00B302"/>
</linearGradient>
<linearGradient id="paint4_linear_9_1788" x1="59.2383" y1="32.5068" x2="49.3632" y2="7.28054" gradientUnits="userSpaceOnUse">
<stop stop-color="#92F37F"/>
<stop offset="1" stop-color="#4AB272"/>
</linearGradient>
<linearGradient id="paint5_linear_9_1788" x1="50.3377" y1="29.2491" x2="37.2014" y2="22.4348" gradientUnits="userSpaceOnUse">
<stop stop-color="#4AB272" stop-opacity="0.01"/>
<stop offset="1" stop-color="#009245"/>
</linearGradient>
<linearGradient id="paint6_linear_9_1788" x1="40.4497" y1="31.3891" x2="43.1096" y2="38.3548" gradientUnits="userSpaceOnUse">
<stop stop-color="#4AB272"/>
<stop offset="1" stop-color="#077565"/>
</linearGradient>
<linearGradient id="paint7_linear_9_1788" x1="32.7343" y1="15.6742" x2="33.2789" y2="19.986" gradientUnits="userSpaceOnUse">
<stop stop-color="#91F27F"/>
<stop offset="1" stop-color="#00B302"/>
</linearGradient>
<linearGradient id="paint8_linear_9_1788" x1="58.8942" y1="34.4014" x2="59.4388" y2="38.7133" gradientUnits="userSpaceOnUse">
<stop stop-color="#91F27F"/>
<stop offset="1" stop-color="#00B302"/>
</linearGradient>
<linearGradient id="paint9_linear_9_1788" x1="24.8268" y1="26.7202" x2="25.3715" y2="31.0319" gradientUnits="userSpaceOnUse">
<stop stop-color="#91F27F"/>
<stop offset="1" stop-color="#00B302"/>
</linearGradient>
<linearGradient id="paint10_linear_9_1788" x1="50.9867" y1="45.4474" x2="51.5314" y2="49.7591" gradientUnits="userSpaceOnUse">
<stop stop-color="#91F27F"/>
<stop offset="1" stop-color="#00B302"/>
</linearGradient>
<linearGradient id="paint11_linear_9_1788" x1="41.6002" y1="14.7841" x2="22.4279" y2="37.8466" gradientUnits="userSpaceOnUse">
<stop stop-color="#4AB272"/>
<stop offset="1" stop-color="#077565"/>
</linearGradient>
<linearGradient id="paint12_linear_9_1788" x1="67.1667" y1="46.5703" x2="96.9833" y2="6.06821" gradientUnits="userSpaceOnUse">
<stop stop-color="#92F37F" stop-opacity="0.01"/>
<stop offset="1" stop-color="#FFEE83"/>
</linearGradient>
<linearGradient id="paint13_linear_9_1788" x1="45.4708" y1="18.5273" x2="31.7071" y2="32.4004" gradientUnits="userSpaceOnUse">
<stop stop-color="#91F27F"/>
<stop offset="1" stop-color="#00B302"/>
</linearGradient>
<linearGradient id="paint14_linear_9_1788" x1="63.4466" y1="35.3474" x2="62.673" y2="8.24739" gradientUnits="userSpaceOnUse">
<stop stop-color="#92F37F"/>
<stop offset="1" stop-color="#4AB272"/>
</linearGradient>
<linearGradient id="paint15_linear_9_1788" x1="53.6509" y1="32.0077" x2="43.8878" y2="20.2207" gradientUnits="userSpaceOnUse">
<stop stop-color="#4AB272" stop-opacity="0.01"/>
<stop offset="1" stop-color="#009245"/>
</linearGradient>
<linearGradient id="paint16_linear_9_1788" x1="45.404" y1="27.9066" x2="45.469" y2="35.3686" gradientUnits="userSpaceOnUse">
<stop stop-color="#4AB272"/>
<stop offset="1" stop-color="#077565"/>
</linearGradient>
<linearGradient id="paint17_linear_9_1788" x1="44.1722" y1="10.5318" x2="43.2275" y2="14.7775" gradientUnits="userSpaceOnUse">
<stop stop-color="#91F27F"/>
<stop offset="1" stop-color="#00B302"/>
</linearGradient>
<linearGradient id="paint18_linear_9_1788" x1="62.4817" y1="37.0159" x2="61.5371" y2="41.2616" gradientUnits="userSpaceOnUse">
<stop stop-color="#91F27F"/>
<stop offset="1" stop-color="#00B302"/>
</linearGradient>
<linearGradient id="paint19_linear_9_1788" x1="32.9896" y1="18.263" x2="32.0449" y2="22.5086" gradientUnits="userSpaceOnUse">
<stop stop-color="#91F27F"/>
<stop offset="1" stop-color="#00B302"/>
</linearGradient>
<linearGradient id="paint20_linear_9_1788" x1="51.2989" y1="44.7469" x2="50.3543" y2="48.9926" gradientUnits="userSpaceOnUse">
<stop stop-color="#91F27F"/>
<stop offset="1" stop-color="#00B302"/>
</linearGradient>
<linearGradient id="paint21_linear_9_1788" x1="53.8962" y1="8.12595" x2="26.7313" y2="18.1652" gradientUnits="userSpaceOnUse">
<stop stop-color="#4AB272"/>
<stop offset="1" stop-color="#077565"/>
</linearGradient>
<linearGradient id="paint22_linear_9_1788" x1="63.9331" y1="59.0208" x2="108.564" y2="40.9437" gradientUnits="userSpaceOnUse">
<stop stop-color="#92F37F" stop-opacity="0.01"/>
<stop offset="1" stop-color="#FFEE83"/>
</linearGradient>
<linearGradient id="paint23_linear_9_1788" x1="55.8407" y1="13.5547" x2="37.7322" y2="18.5625" gradientUnits="userSpaceOnUse">
<stop stop-color="#91F27F"/>
<stop offset="1" stop-color="#00B302"/>
</linearGradient>
<linearGradient id="paint24_linear_9_1788" x1="66.4165" y1="39.4153" x2="74.8572" y2="13.6524" gradientUnits="userSpaceOnUse">
<stop stop-color="#92F37F"/>
<stop offset="1" stop-color="#4AB272"/>
</linearGradient>
<linearGradient id="paint25_linear_9_1788" x1="58.8045" y1="36.9165" x2="65.0014" y2="21.0067" gradientUnits="userSpaceOnUse">
<stop stop-color="#4AB272" stop-opacity="0.01"/>
<stop offset="1" stop-color="#009245"/>
</linearGradient>
<linearGradient id="paint26_linear_9_1788" x1="50.6864" y1="26.9779" x2="49.633" y2="34.2315" gradientUnits="userSpaceOnUse">
<stop stop-color="#4AB272"/>
<stop offset="1" stop-color="#077565"/>
</linearGradient>
<linearGradient id="paint27_linear_9_1788" x1="56.675" y1="9.54277" x2="54.3498" y2="13.2184" gradientUnits="userSpaceOnUse">
<stop stop-color="#91F27F"/>
<stop offset="1" stop-color="#00B302"/>
</linearGradient>
<linearGradient id="paint28_linear_9_1788" x1="64.9443" y1="40.6589" x2="62.6191" y2="44.3345" gradientUnits="userSpaceOnUse">
<stop stop-color="#91F27F"/>
<stop offset="1" stop-color="#00B302"/>
</linearGradient>
<linearGradient id="paint29_linear_9_1788" x1="43.5365" y1="13.0345" x2="41.2111" y2="16.71" gradientUnits="userSpaceOnUse">
<stop stop-color="#91F27F"/>
<stop offset="1" stop-color="#00B302"/>
</linearGradient>
<linearGradient id="paint30_linear_9_1788" x1="51.8056" y1="44.1506" x2="49.4804" y2="47.8261" gradientUnits="userSpaceOnUse">
<stop stop-color="#91F27F"/>
<stop offset="1" stop-color="#00B302"/>
</linearGradient>
<linearGradient id="paint31_linear_9_1788" x1="1.661" y1="32.5921" x2="18.7128" y2="82.9099" gradientUnits="userSpaceOnUse">
<stop stop-color="#FCB37E"/>
<stop offset="1" stop-color="#8C6239"/>
</linearGradient>
<linearGradient id="paint32_linear_9_1788" x1="69.8883" y1="36.65" x2="49.4834" y2="2.42019" gradientUnits="userSpaceOnUse">
<stop stop-color="#C59B6D" stop-opacity="0.01"/>
<stop offset="0.1809" stop-color="#C69D71" stop-opacity="0.181"/>
<stop offset="0.3458" stop-color="#CBA57C" stop-opacity="0.346"/>
<stop offset="0.5044" stop-color="#D2B28E" stop-opacity="0.504"/>
<stop offset="0.6593" stop-color="#DDC4A8" stop-opacity="0.659"/>
<stop offset="0.8113" stop-color="#EADBCA" stop-opacity="0.811"/>
<stop offset="0.9593" stop-color="#FAF6F2" stop-opacity="0.959"/>
<stop offset="1" stop-color="white"/>
</linearGradient>
<linearGradient id="paint33_linear_9_1788" x1="16.2747" y1="51.763" x2="40.0499" y2="94.985" gradientUnits="userSpaceOnUse">
<stop stop-color="#8C6239" stop-opacity="0.01"/>
<stop offset="1" stop-color="#8C6239"/>
</linearGradient>
<linearGradient id="paint34_linear_9_1788" x1="76.2027" y1="54.1717" x2="70.3717" y2="44.5204" gradientUnits="userSpaceOnUse">
<stop stop-color="#8C6239" stop-opacity="0.01"/>
<stop offset="1" stop-color="#8C6239"/>
</linearGradient>
<linearGradient id="paint35_linear_9_1788" x1="55.1344" y1="41.8144" x2="60.6624" y2="54.5085" gradientUnits="userSpaceOnUse">
<stop stop-color="#FCB37E"/>
<stop offset="1" stop-color="#8C6239"/>
</linearGradient>
<linearGradient id="paint36_linear_9_1788" x1="72.2015" y1="42.7851" x2="67.7778" y2="34.3526" gradientUnits="userSpaceOnUse">
<stop stop-color="#C59B6D" stop-opacity="0.01"/>
<stop offset="0.1809" stop-color="#C69D71" stop-opacity="0.181"/>
<stop offset="0.3458" stop-color="#CBA57C" stop-opacity="0.346"/>
<stop offset="0.5044" stop-color="#D2B28E" stop-opacity="0.504"/>
<stop offset="0.6593" stop-color="#DDC4A8" stop-opacity="0.659"/>
<stop offset="0.8113" stop-color="#EADBCA" stop-opacity="0.811"/>
<stop offset="0.9593" stop-color="#FAF6F2" stop-opacity="0.959"/>
<stop offset="1" stop-color="white"/>
</linearGradient>
<linearGradient id="paint37_linear_9_1788" x1="75.4942" y1="48.2493" x2="71.4095" y2="40.4668" gradientUnits="userSpaceOnUse">
<stop stop-color="#8C6239" stop-opacity="0.01"/>
<stop offset="1" stop-color="#8C6239"/>
</linearGradient>
<radialGradient id="paint38_radial_9_1788" cx="0" cy="0" r="1" gradientUnits="userSpaceOnUse" gradientTransform="translate(63.522 42.8024) scale(4.22323)">
<stop stop-color="#FFD945"/>
<stop offset="0.4169" stop-color="#FFD744"/>
<stop offset="0.6278" stop-color="#FFCF3F"/>
<stop offset="0.7926" stop-color="#FFC237"/>
<stop offset="0.9326" stop-color="#FFAF2C"/>
<stop offset="1" stop-color="#FFA325"/>
</radialGradient>
<linearGradient id="paint39_linear_9_1788" x1="67.1143" y1="42.6655" x2="63.0596" y2="38.6108" gradientUnits="userSpaceOnUse">
<stop stop-color="#FFD945" stop-opacity="0.01"/>
<stop offset="1" stop-color="#FBED21"/>
</linearGradient>
<linearGradient id="paint40_linear_9_1788" x1="68.6102" y1="47.3884" x2="74.9242" y2="42.044" gradientUnits="userSpaceOnUse">
<stop stop-color="#E87264" stop-opacity="0.01"/>
<stop offset="1" stop-color="#FF7044"/>
</linearGradient>
<linearGradient id="paint41_linear_9_1788" x1="66.8238" y1="43.0617" x2="66.8238" y2="39.8654" gradientUnits="userSpaceOnUse">
<stop stop-color="white" stop-opacity="0.01"/>
<stop offset="1" stop-color="white"/>
</linearGradient>
<linearGradient id="paint42_linear_9_1788" x1="57.6013" y1="58.6479" x2="50.6345" y2="45.5095" gradientUnits="userSpaceOnUse">
<stop stop-color="#8C6239" stop-opacity="0.01"/>
<stop offset="1" stop-color="#8C6239"/>
</linearGradient>
<linearGradient id="paint43_linear_9_1788" x1="13.5904" y1="61.3096" x2="13.5904" y2="67.504" gradientUnits="userSpaceOnUse">
<stop stop-color="#FFD945"/>
<stop offset="0.3043" stop-color="#FFCD3E"/>
<stop offset="0.8558" stop-color="#FFAD2B"/>
<stop offset="1" stop-color="#FFA325"/>
</linearGradient>
<linearGradient id="paint44_linear_9_1788" x1="9.71961" y1="61.3996" x2="9.71961" y2="71.817" gradientUnits="userSpaceOnUse">
<stop stop-color="#E87264" stop-opacity="0.01"/>
<stop offset="1" stop-color="#FF7044"/>
</linearGradient>
<linearGradient id="paint45_linear_9_1788" x1="21.3723" y1="61.3995" x2="21.3723" y2="71.8169" gradientUnits="userSpaceOnUse">
<stop stop-color="#E87264" stop-opacity="0.01"/>
<stop offset="1" stop-color="#FF7044"/>
</linearGradient>
<linearGradient id="paint46_linear_9_1788" x1="43.4105" y1="62.829" x2="43.3171" y2="56.8191" gradientUnits="userSpaceOnUse">
<stop stop-color="#FFD945" stop-opacity="0.01"/>
<stop offset="1" stop-color="#FBED21"/>
</linearGradient>
<linearGradient id="paint47_linear_9_1788" x1="13.5907" y1="56.5321" x2="13.5907" y2="62.7264" gradientUnits="userSpaceOnUse">
<stop stop-color="#FFD945"/>
<stop offset="0.3043" stop-color="#FFCD3E"/>
<stop offset="0.8558" stop-color="#FFAD2B"/>
<stop offset="1" stop-color="#FFA325"/>
</linearGradient>
<linearGradient id="paint48_linear_9_1788" x1="9.71941" y1="56.6219" x2="9.71941" y2="67.0394" gradientUnits="userSpaceOnUse">
<stop stop-color="#E87264" stop-opacity="0.01"/>
<stop offset="1" stop-color="#FF7044"/>
</linearGradient>
<linearGradient id="paint49_linear_9_1788" x1="21.3722" y1="56.6219" x2="21.3722" y2="67.0394" gradientUnits="userSpaceOnUse">
<stop stop-color="#E87264" stop-opacity="0.01"/>
<stop offset="1" stop-color="#FF7044"/>
</linearGradient>
<linearGradient id="paint50_linear_9_1788" x1="43.4106" y1="58.0513" x2="43.3172" y2="52.0416" gradientUnits="userSpaceOnUse">
<stop stop-color="#FFD945" stop-opacity="0.01"/>
<stop offset="1" stop-color="#FBED21"/>
</linearGradient>
<linearGradient id="paint51_linear_9_1788" x1="13.5907" y1="51.7546" x2="13.5907" y2="57.9489" gradientUnits="userSpaceOnUse">
<stop stop-color="#FFD945"/>
<stop offset="0.3043" stop-color="#FFCD3E"/>
<stop offset="0.8558" stop-color="#FFAD2B"/>
<stop offset="1" stop-color="#FFA325"/>
</linearGradient>
<linearGradient id="paint52_linear_9_1788" x1="9.71961" y1="51.8444" x2="9.71961" y2="62.2618" gradientUnits="userSpaceOnUse">
<stop stop-color="#E87264" stop-opacity="0.01"/>
<stop offset="1" stop-color="#FF7044"/>
</linearGradient>
<linearGradient id="paint53_linear_9_1788" x1="21.3723" y1="51.8444" x2="21.3723" y2="62.2618" gradientUnits="userSpaceOnUse">
<stop stop-color="#E87264" stop-opacity="0.01"/>
<stop offset="1" stop-color="#FF7044"/>
</linearGradient>
<linearGradient id="paint54_linear_9_1788" x1="43.4106" y1="53.2738" x2="43.3172" y2="47.2641" gradientUnits="userSpaceOnUse">
<stop stop-color="#FFD945" stop-opacity="0.01"/>
<stop offset="1" stop-color="#FBED21"/>
</linearGradient>
<linearGradient id="paint55_linear_9_1788" x1="13.5904" y1="46.9769" x2="13.5904" y2="53.1713" gradientUnits="userSpaceOnUse">
<stop stop-color="#FFD945"/>
<stop offset="0.3043" stop-color="#FFCD3E"/>
<stop offset="0.8558" stop-color="#FFAD2B"/>
<stop offset="1" stop-color="#FFA325"/>
</linearGradient>
<linearGradient id="paint56_linear_9_1788" x1="9.71961" y1="47.0668" x2="9.71961" y2="57.4842" gradientUnits="userSpaceOnUse">
<stop stop-color="#E87264" stop-opacity="0.01"/>
<stop offset="1" stop-color="#FF7044"/>
</linearGradient>
<linearGradient id="paint57_linear_9_1788" x1="21.3723" y1="47.0668" x2="21.3723" y2="57.4842" gradientUnits="userSpaceOnUse">
<stop stop-color="#E87264" stop-opacity="0.01"/>
<stop offset="1" stop-color="#FF7044"/>
</linearGradient>
<linearGradient id="paint58_linear_9_1788" x1="43.4109" y1="48.4963" x2="43.3175" y2="42.4864" gradientUnits="userSpaceOnUse">
<stop stop-color="#FFD945" stop-opacity="0.01"/>
<stop offset="1" stop-color="#FBED21"/>
</linearGradient>
</defs>
</svg>
