<svg width="62" height="70" viewBox="0 0 62 70" fill="none" xmlns="http://www.w3.org/2000/svg">
<ellipse cx="30.185" cy="32.4056" rx="29.625" ry="29.5833" fill="url(#paint0_linear_9_2021)"/>
<mask id="mask0_9_2021" style="mask-type:alpha" maskUnits="userSpaceOnUse" x="0" y="0" width="62" height="70">
<ellipse cx="31.2792" cy="34.8927" rx="30.7192" ry="34.6493" fill="white"/>
</mask>
<g mask="url(#mask0_9_2021)">
<path d="M47.2802 58.5659H6.01881C2.96488 58.5659 0.489166 56.0902 0.489166 53.0363V11.7749C0.489166 8.72096 2.96488 6.24524 6.01881 6.24524H47.2802C50.3342 6.24524 52.8099 8.72096 52.8099 11.7749V53.0363C52.8099 56.0902 50.3342 58.5659 47.2802 58.5659Z" fill="url(#paint1_linear_9_2021)"/>
<path d="M45.7148 56.5809H7.58441C4.76217 56.5809 2.47427 54.293 2.47427 51.4708V13.3405C2.47427 10.5182 4.76217 8.23047 7.58441 8.23047H45.7148C48.537 8.23047 50.8249 10.5184 50.8249 13.3405V51.4708C50.8248 54.293 48.5369 56.5809 45.7148 56.5809Z" fill="url(#paint2_linear_9_2021)"/>
<path d="M47.5705 6.25293V58.5584C50.4895 58.4074 52.8099 55.9929 52.8099 53.0363V11.7749C52.8099 8.81833 50.4895 6.40386 47.5705 6.25293Z" fill="url(#paint3_linear_9_2021)"/>
<path d="M47.5705 6.25293V58.5584C50.4895 58.4074 52.8099 55.9929 52.8099 53.0363V11.7749C52.8099 8.81833 50.4895 6.40386 47.5705 6.25293Z" fill="url(#paint4_linear_9_2021)"/>
<path d="M14.2555 6.24524H26.6495V58.5661H14.2555V6.24524Z" fill="url(#paint5_linear_9_2021)"/>
<path d="M52.8099 30.8458L29.6722 7.70813C28.9592 6.99511 27.74 7.50023 27.7399 8.50873C27.7399 9.13381 27.2331 9.64067 26.6079 9.64067L18.4958 9.64125C18.0443 9.64125 18.0951 10.0074 18.095 10.4589L18.0944 16.9663C18.0944 17.4178 18.0434 17.784 18.495 17.7839H18.5852L43.5633 42.8523L51.2054 42.8517C51.2798 42.9191 51.3629 42.9759 51.4516 43.0216C51.5605 43.2379 51.7362 43.4064 51.9431 43.5131C52.0521 43.7295 52.2277 43.8979 52.4347 44.0047C52.5223 44.1787 52.6543 44.3199 52.8099 44.4247V30.8458Z" fill="url(#paint6_linear_9_2021)"/>
<path d="M45.7146 56.5809C47.342 56.5809 48.7904 55.8194 49.7263 54.6343C49.7159 54.6275 49.7071 54.6198 49.6967 54.6129C49.5367 54.3498 49.3097 54.1243 49.0185 53.9347L16.4652 21.3814C16.2446 21.0184 15.9001 20.7247 15.4297 20.5019C14.7926 20.2001 14.06 20.0492 13.2333 20.0492C12.406 20.0492 11.6741 20.2001 11.0371 20.5019C10.3998 20.8037 9.9918 21.2344 9.81325 21.7929L3.57628 42.2471C3.53126 42.4262 3.50934 42.5489 3.50934 42.6159C3.50934 43.1361 3.80065 43.5932 4.38199 43.9877L16.9751 56.5808H45.7146V56.5809Z" fill="url(#paint7_linear_9_2021)"/>
<path fill-rule="evenodd" clip-rule="evenodd" d="M3.57627 42.2472C3.53114 42.4264 3.50922 42.549 3.50922 42.6161C3.50922 43.1976 3.87234 43.7005 4.59893 44.125C5.32517 44.5499 6.07972 44.7621 6.86234 44.7621C7.82328 44.7621 8.39336 44.4383 8.57249 43.7896L9.71266 39.5982H16.7877L17.9279 43.7896C18.1064 44.4383 18.6765 44.7621 19.6379 44.7621C20.4202 44.7621 21.1746 44.55 21.9013 44.125C22.6276 43.7007 22.991 43.1976 22.991 42.6161C22.991 42.549 22.9685 42.4264 22.924 42.2472L16.6537 21.793C16.4744 21.2345 16.0667 20.8039 15.4297 20.502C14.7926 20.2002 14.0601 20.0493 13.2333 20.0493C12.406 20.0493 11.6741 20.2002 11.0371 20.502C10.3999 20.8037 9.99179 21.2345 9.81325 21.793L3.57627 42.2472ZM15.6812 35.5744H10.7857L13.2333 26.5879L15.6812 35.5744Z" fill="url(#paint8_linear_9_2021)"/>
<path d="M26.6495 6.24524L47.6793 2.83365C48.2064 2.74815 48.6847 3.15512 48.6847 3.68901V61.1221C48.6847 61.6561 48.2064 62.063 47.6793 61.9775L26.6495 58.566L26.6495 6.24524Z" fill="url(#paint9_linear_9_2021)"/>
<path d="M52.8099 30.8458L29.6723 7.70813C28.9592 6.99511 27.7401 7.50023 27.7399 8.50873C27.7399 9.11977 27.2552 9.61654 26.6495 9.63858V25.8773L43.5634 42.8523L51.2055 42.8517C51.2799 42.9191 51.363 42.9759 51.4517 43.0216C51.5607 43.2379 51.7363 43.4064 51.9433 43.5131C52.0522 43.7295 52.2279 43.8979 52.4348 44.0047C52.5224 44.1787 52.6544 44.3199 52.81 44.4247V30.8458H52.8099Z" fill="url(#paint10_linear_9_2021)"/>
<path d="M47.6793 2.83365L46.4563 3.03203C46.6398 3.18981 46.7582 3.42369 46.7582 3.68901V61.122C46.7582 61.3874 46.6398 61.6212 46.4563 61.7789L47.6793 61.9773C48.2064 62.0628 48.6847 61.6558 48.6847 61.1218V3.68913C48.6847 3.15512 48.2064 2.74815 47.6793 2.83365Z" fill="url(#paint11_linear_9_2021)"/>
<path d="M47.6793 2.83365L46.4563 3.03203C46.6398 3.18981 46.7582 3.42369 46.7582 3.68901V61.122C46.7582 61.3874 46.6398 61.6212 46.4563 61.7789L47.6793 61.9773C48.2064 62.0628 48.6847 61.6558 48.6847 61.1218V3.68913C48.6847 3.15512 48.2064 2.74815 47.6793 2.83365Z" fill="url(#paint12_linear_9_2021)"/>
<path d="M52.8099 53.0363V33.1321L45.5964 25.9186C45.3259 25.5189 44.8682 25.2563 44.3493 25.2563H41.3945L37.9503 21.8496C37.6798 21.4499 37.2221 21.1873 36.7032 21.1873C35.872 21.1873 35.198 21.8612 35.198 22.6924V25.2563H29.0571C28.2259 25.2563 27.552 25.9302 27.552 26.7614C27.552 27.2804 27.8147 27.7379 28.2143 28.0086L32.6258 32.4293C31.8757 32.6905 31.4519 33.4948 31.6754 34.267C32.2633 36.2981 33.223 38.0855 34.4436 39.5409C33.3093 40.2284 32.0387 40.6139 30.6978 40.6139C29.8665 40.6139 29.1926 41.2877 29.1926 42.119C29.1926 42.6379 29.4554 43.0955 29.8549 43.3662L48.3181 61.8293C48.5379 61.6735 48.6846 61.4176 48.6846 61.1223V58.3851C51.0583 57.7633 52.8099 55.6048 52.8099 53.0363Z" fill="url(#paint13_linear_9_2021)"/>
<path d="M44.3493 25.2562H38.2083V22.6923C38.2083 21.8611 37.5344 21.1871 36.7032 21.1871C35.872 21.1871 35.198 21.8611 35.198 22.6923V25.2562H29.0571C28.2259 25.2562 27.552 25.9301 27.552 26.7613C27.552 27.5926 28.2259 28.2665 29.0571 28.2665H39.3575V29.7187C39.3575 32.7933 38.3397 35.574 36.706 37.5569C35.7706 36.4258 35.0288 35.0254 34.5669 33.4299C34.3358 32.6314 33.5012 32.1717 32.7027 32.4026C31.9043 32.6337 31.4443 33.4684 31.6754 34.2669C32.2633 36.2979 33.223 38.0854 34.4436 39.5407C33.3093 40.2282 32.0387 40.6137 30.6978 40.6137C29.8665 40.6137 29.1926 41.2875 29.1926 42.1189C29.1926 42.9501 29.8665 43.6241 30.6978 43.6241C32.8559 43.6241 34.9173 42.9368 36.711 41.6497C38.483 42.9128 40.544 43.6241 42.7085 43.6241C43.5397 43.6241 44.2136 42.9501 44.2136 42.1189C44.2136 41.2877 43.5397 40.6137 42.7085 40.6137C41.3883 40.6137 40.1157 40.2295 38.9702 39.5354C38.9965 39.5038 39.0232 39.4731 39.0493 39.4412C41.1891 36.8308 42.3675 33.378 42.3675 29.7188V28.2666H44.3491C45.1804 28.2666 45.8543 27.5927 45.8543 26.7614C45.8544 25.9301 45.1805 25.2562 44.3493 25.2562Z" fill="url(#paint14_linear_9_2021)"/>
<path d="M26.6072 17.7833L18.495 17.7839C18.0434 17.7839 18.0942 17.4179 18.0944 16.9664L18.0949 10.459C18.0949 10.0074 18.0441 9.6413 18.4958 9.6413L26.608 9.64072C27.2331 9.64072 27.7399 9.13386 27.7399 8.50878C27.74 7.50039 28.9592 6.99527 29.6722 7.70817L34.8749 12.9109C35.317 13.3529 35.3168 14.0695 34.8748 14.5116L29.6711 19.7153C28.9579 20.4284 27.7388 19.9235 27.7389 18.9151C27.739 18.2901 27.2322 17.7833 26.6072 17.7833Z" fill="url(#paint15_linear_9_2021)"/>
<path d="M19.0156 10.562L26.6079 10.5614C27.7396 10.5613 28.6605 9.64048 28.6606 8.50866C28.6606 8.41492 28.7046 8.34937 28.791 8.31353C28.8775 8.27768 28.9549 8.29299 29.0212 8.35924L34.2239 13.562C34.275 13.6131 34.2857 13.6715 34.2857 13.7113C34.2857 13.7512 34.2749 13.8094 34.2239 13.8607L29.0201 19.0643C28.9539 19.1306 28.8764 19.146 28.7898 19.1102C28.7033 19.0743 28.6594 19.0088 28.6594 18.915C28.6595 17.7832 27.7389 16.8625 26.6072 16.8626L19.0149 16.8632L19.0156 10.562Z" fill="url(#paint16_linear_9_2021)"/>
<path d="M18.0944 16.9664C18.0944 17.4179 18.0434 17.7841 18.495 17.7841L26.6072 17.7835C27.2323 17.7834 27.739 18.2901 27.739 18.9153C27.7389 19.9237 28.9581 20.4286 29.6712 19.7154L34.8748 14.5118C35.0959 14.2908 35.2064 14.0011 35.2064 13.7114L18.0947 13.7127L18.0944 16.9664Z" fill="url(#paint17_linear_9_2021)"/>
</g>
<defs>
<linearGradient id="paint0_linear_9_2021" x1="-24.3652" y1="-9.7232" x2="-9.49078" y2="69.4435" gradientUnits="userSpaceOnUse">
<stop stop-color="#FEFEFE"/>
<stop offset="1" stop-color="#DEE1E9"/>
</linearGradient>
<linearGradient id="paint1_linear_9_2021" x1="-8.31796" y1="44.8034" x2="39.0474" y2="92.1688" gradientUnits="userSpaceOnUse">
<stop stop-color="#F9F7FC"/>
<stop offset="1" stop-color="#F0DDFC"/>
</linearGradient>
<linearGradient id="paint2_linear_9_2021" x1="26.4796" y1="16.8793" x2="11.1233" y2="1.52279" gradientUnits="userSpaceOnUse">
<stop stop-color="#E9EDF5" stop-opacity="0.01"/>
<stop offset="1" stop-color="white"/>
</linearGradient>
<linearGradient id="paint3_linear_9_2021" x1="39.9017" y1="94.112" x2="52.2638" y2="94.112" gradientUnits="userSpaceOnUse">
<stop stop-color="#18CFFC"/>
<stop offset="1" stop-color="#4A98F7"/>
</linearGradient>
<linearGradient id="paint4_linear_9_2021" x1="52.9392" y1="11.1537" x2="48.6817" y2="11.1537" gradientUnits="userSpaceOnUse">
<stop stop-color="#0469BC" stop-opacity="0.01"/>
<stop offset="1" stop-color="#0469BC"/>
</linearGradient>
<linearGradient id="paint5_linear_9_2021" x1="17.8677" y1="89.3339" x2="44.8386" y2="89.3339" gradientUnits="userSpaceOnUse">
<stop stop-color="#F0DDFC" stop-opacity="0.01"/>
<stop offset="0.2889" stop-color="#C8B7E0" stop-opacity="0.289"/>
<stop offset="0.5915" stop-color="#A595C8" stop-opacity="0.592"/>
<stop offset="0.8395" stop-color="#8F81B8" stop-opacity="0.84"/>
<stop offset="1" stop-color="#8779B3"/>
</linearGradient>
<linearGradient id="paint6_linear_9_2021" x1="45.9757" y1="13.6579" x2="24.3519" y2="-6.84966" gradientUnits="userSpaceOnUse">
<stop stop-color="#F0DDFC" stop-opacity="0.01"/>
<stop offset="0.2889" stop-color="#C8B7E0" stop-opacity="0.289"/>
<stop offset="0.5915" stop-color="#A595C8" stop-opacity="0.592"/>
<stop offset="0.8395" stop-color="#8F81B8" stop-opacity="0.84"/>
<stop offset="1" stop-color="#8779B3"/>
</linearGradient>
<linearGradient id="paint7_linear_9_2021" x1="46.3305" y1="37.5169" x2="30.0423" y2="0.860352" gradientUnits="userSpaceOnUse">
<stop stop-color="#F0DDFC" stop-opacity="0.01"/>
<stop offset="0.2889" stop-color="#C8B7E0" stop-opacity="0.289"/>
<stop offset="0.5915" stop-color="#A595C8" stop-opacity="0.592"/>
<stop offset="0.8395" stop-color="#8F81B8" stop-opacity="0.84"/>
<stop offset="1" stop-color="#8779B3"/>
</linearGradient>
<linearGradient id="paint8_linear_9_2021" x1="2.1362" y1="44.104" x2="24.8387" y2="51.5547" gradientUnits="userSpaceOnUse">
<stop stop-color="#18CFFC"/>
<stop offset="1" stop-color="#4A98F7"/>
</linearGradient>
<linearGradient id="paint9_linear_9_2021" x1="30.3931" y1="61.3831" x2="56.2114" y2="63.5529" gradientUnits="userSpaceOnUse">
<stop stop-color="#18CFFC"/>
<stop offset="1" stop-color="#4A98F7"/>
</linearGradient>
<linearGradient id="paint10_linear_9_2021" x1="44.7591" y1="8.71251" x2="16.6992" y2="-4.25228" gradientUnits="userSpaceOnUse">
<stop stop-color="#0469BC" stop-opacity="0.01"/>
<stop offset="1" stop-color="#0469BC"/>
</linearGradient>
<linearGradient id="paint11_linear_9_2021" x1="44.6477" y1="219.101" x2="58.7351" y2="219.103" gradientUnits="userSpaceOnUse">
<stop stop-color="#0469BC" stop-opacity="0.01"/>
<stop offset="1" stop-color="#0469BC"/>
</linearGradient>
<linearGradient id="paint12_linear_9_2021" x1="50.8718" y1="-186.527" x2="34.0325" y2="-186.559" gradientUnits="userSpaceOnUse">
<stop stop-color="#18CFFC" stop-opacity="0.01"/>
<stop offset="1" stop-color="#65E1DC"/>
</linearGradient>
<linearGradient id="paint13_linear_9_2021" x1="51.5815" y1="21.3921" x2="21.8615" y2="13.4136" gradientUnits="userSpaceOnUse">
<stop stop-color="#0469BC" stop-opacity="0.01"/>
<stop offset="1" stop-color="#0469BC"/>
</linearGradient>
<linearGradient id="paint14_linear_9_2021" x1="22.3409" y1="36.1786" x2="41.6246" y2="49.3819" gradientUnits="userSpaceOnUse">
<stop stop-color="#F9F7FC"/>
<stop offset="1" stop-color="#F0DDFC"/>
</linearGradient>
<linearGradient id="paint15_linear_9_2021" x1="21.1657" y1="7.52904" x2="16.7572" y2="18.6673" gradientUnits="userSpaceOnUse">
<stop stop-color="#92F37F"/>
<stop offset="1" stop-color="#4AB272"/>
</linearGradient>
<linearGradient id="paint16_linear_9_2021" x1="33.0747" y1="17.3263" x2="35.8907" y2="5.43049" gradientUnits="userSpaceOnUse">
<stop stop-color="#92F37F" stop-opacity="0.01"/>
<stop offset="1" stop-color="#FFEE83"/>
</linearGradient>
<linearGradient id="paint17_linear_9_2021" x1="43.0747" y1="13.6157" x2="40.2433" y2="-0.234322" gradientUnits="userSpaceOnUse">
<stop stop-color="#4AB272" stop-opacity="0.01"/>
<stop offset="1" stop-color="#009245"/>
</linearGradient>
</defs>
</svg>
